# xmcd
#
# Track frame offsets:
#	150
#	14287
#	27933
#	36267
#	50139
#	60232
#	71945
#	83550
#	94447
#	103962
#	112258
#	124792
#	139103
#	158941
#	179145
#	194616
#	207976
#	220448
#	233411
#	245416
#	253942
#	263363
#	272697
#	282170
#	294906
#	306542
#	320515
#	331904
#
# Disc length: 4547 seconds
#
# Revision: 1
# Processed by: cddbd v1.5.2PL0 Copyright (c) Steve Scherf et al.
# Submitted via: audiograbber 1.83.01
#
DISCID=b611c11c
DTITLE=Compilation - Country Classic Songs #2
DYEAR=1900
DGENRE=Country
TTITLE0=Randy Travis - On The Other Hand
TTITLE1=Randy Travis  - 1982
TTITLE2=Johnny Cash - 5 Feet High and Risingt
TTITLE3=Johnny Cash - Tenness Flat Top Box
TTITLE4=Johnny Cash - Ballad Of a Teenage Queen
TTITLE5=Johnny Cash - Transfusion Blues
TTITLE6=Johnny Cash - Big River
TTITLE7=Johnny Cash - Train Of Love
TTITLE8=Johnny Cash - Luther Played The Boogie
TTITLE9=Johnny Cash - Wreck Ofn The Old 97
TTITLE10=Johnny Cash - UInderstand Your Man
TTITLE11=Johnny Cash - Orange Blossam Special
TTITLE12=George Strait/Alan Jackson - Murder On Music Row
TTITLE13=Keith Whitley - I Never Go Around Mirrors
TTITLE14=Leona Williams - I Never Go Around Mirrors
TTITLE15=Carl and Pearl Butler - Don't Let Me Cross Over
TTITLE16=Carl Butler - Honky Tonkitis
TTITLE17=Earest Ashworth - Talk Back Trembling Lips
TTITLE18=Johnny Tillotson - Talk Back Trembling Lips
TTITLE19=Waylon Jennings - Nashville Rebel
TTITLE20=Waylon Jennings - Stop The World and Let Me Off
TTITLE21=Waylon Jenning - Time To Burn Again
TTITLE22=Waylon Jennings - Leaving Town
TTITLE23=Willie Nelso0n - Mr Record Man
TTITLE24=Willie Nelson - One Day At A Time
TTITLE25=Willie Nelson - Funny How Time Slips Away7
TTITLE26=Willie Nelson - The Parties Over
TTITLE27=Willie Nelson - Blackjack County Chains
EXTD=
EXTT0=
EXTT1=
EXTT2=
EXTT3=
EXTT4=
EXTT5=
EXTT6=
EXTT7=
EXTT8=
EXTT9=
EXTT10=
EXTT11=
EXTT12=
EXTT13=
EXTT14=
EXTT15=
EXTT16=
EXTT17=
EXTT18=
EXTT19=
EXTT20=
EXTT21=
EXTT22=
EXTT23=
EXTT24=
EXTT25=
EXTT26=
EXTT27=
PLAYORDER=
